<mxfile host="app.diagrams.net" modified="2024-01-08T17:34:46.781Z" agent="Mozilla/5.0 (Windows NT 10.0; Win64; x64) AppleWebKit/537.36 (KHTML, like Gecko) Chrome/120.0.0.0 Safari/537.36" etag="5PF44m8XiOVaXBKfUa2o" version="22.1.17" type="device">
  <diagram id="R2lEEEUBdFMjLlhIrx00" name="Page-1">
    <mxGraphModel dx="1467" dy="2033" grid="1" gridSize="10" guides="1" tooltips="1" connect="1" arrows="1" fold="1" page="1" pageScale="1" pageWidth="850" pageHeight="1100" background="#99FFFF" math="0" shadow="0" extFonts="Permanent Marker^https://fonts.googleapis.com/css?family=Permanent+Marker">
      <root>
        <mxCell id="0" />
        <mxCell id="1" parent="0" />
        <mxCell id="_ozwlIcFfGgeED4cfXQX-1" value="hosiptal" style="rounded=0;whiteSpace=wrap;html=1;fontSize=16;labelBackgroundColor=none;" vertex="1" parent="1">
          <mxGeometry x="390" y="-500" width="120" height="30" as="geometry" />
        </mxCell>
        <mxCell id="_ozwlIcFfGgeED4cfXQX-2" value="patients" style="rhombus;whiteSpace=wrap;html=1;fontSize=16;labelBackgroundColor=none;rounded=0;" vertex="1" parent="1">
          <mxGeometry x="630" y="-525" width="80" height="80" as="geometry" />
        </mxCell>
        <mxCell id="_ozwlIcFfGgeED4cfXQX-3" value="ward" style="rhombus;whiteSpace=wrap;html=1;fontSize=16;labelBackgroundColor=none;rounded=0;" vertex="1" parent="1">
          <mxGeometry x="220" y="-520" width="80" height="80" as="geometry" />
        </mxCell>
        <mxCell id="_ozwlIcFfGgeED4cfXQX-5" value="dld" style="ellipse;whiteSpace=wrap;html=1;fontSize=16;labelBackgroundColor=none;rounded=0;" vertex="1" parent="1">
          <mxGeometry x="140" y="-240" width="80" height="40" as="geometry" />
        </mxCell>
        <mxCell id="_ozwlIcFfGgeED4cfXQX-6" value="pid" style="ellipse;whiteSpace=wrap;html=1;fontSize=16;labelBackgroundColor=none;rounded=0;" vertex="1" parent="1">
          <mxGeometry x="690" y="-420" width="60" height="30" as="geometry" />
        </mxCell>
        <mxCell id="_ozwlIcFfGgeED4cfXQX-7" value="pname" style="ellipse;whiteSpace=wrap;html=1;fontSize=16;labelBackgroundColor=none;rounded=0;" vertex="1" parent="1">
          <mxGeometry x="590" y="-420" width="70" height="30" as="geometry" />
        </mxCell>
        <mxCell id="_ozwlIcFfGgeED4cfXQX-8" value="wname" style="ellipse;whiteSpace=wrap;html=1;fontSize=16;labelBackgroundColor=none;rounded=0;" vertex="1" parent="1">
          <mxGeometry x="170" y="-410" width="70" height="30" as="geometry" />
        </mxCell>
        <mxCell id="_ozwlIcFfGgeED4cfXQX-9" value="wid" style="ellipse;whiteSpace=wrap;html=1;fontSize=16;labelBackgroundColor=none;rounded=0;" vertex="1" parent="1">
          <mxGeometry x="280" y="-415" width="80" height="40" as="geometry" />
        </mxCell>
        <mxCell id="_ozwlIcFfGgeED4cfXQX-15" style="edgeStyle=none;curved=1;rounded=0;orthogonalLoop=1;jettySize=auto;html=1;exitX=0.5;exitY=0;exitDx=0;exitDy=0;fontSize=12;startSize=8;endSize=8;labelBackgroundColor=none;fontColor=default;" edge="1" parent="1">
          <mxGeometry relative="1" as="geometry">
            <mxPoint x="360" y="-250" as="sourcePoint" />
            <mxPoint x="360" y="-250" as="targetPoint" />
          </mxGeometry>
        </mxCell>
        <mxCell id="_ozwlIcFfGgeED4cfXQX-16" style="edgeStyle=none;curved=1;rounded=0;orthogonalLoop=1;jettySize=auto;html=1;exitX=0;exitY=0.5;exitDx=0;exitDy=0;fontSize=12;startSize=8;endSize=8;labelBackgroundColor=none;fontColor=default;" edge="1" parent="1">
          <mxGeometry relative="1" as="geometry">
            <mxPoint x="300" y="-210" as="sourcePoint" />
            <mxPoint x="300" y="-210" as="targetPoint" />
          </mxGeometry>
        </mxCell>
        <mxCell id="_ozwlIcFfGgeED4cfXQX-17" value="nid" style="ellipse;whiteSpace=wrap;html=1;fontSize=16;labelBackgroundColor=none;rounded=0;" vertex="1" parent="1">
          <mxGeometry x="570" y="-200" width="90" height="40" as="geometry" />
        </mxCell>
        <mxCell id="_ozwlIcFfGgeED4cfXQX-18" value="dname" style="ellipse;whiteSpace=wrap;html=1;fontSize=16;labelBackgroundColor=none;rounded=0;" vertex="1" parent="1">
          <mxGeometry x="230" y="-240" width="95" height="40" as="geometry" />
        </mxCell>
        <mxCell id="_ozwlIcFfGgeED4cfXQX-23" value="specilist" style="rounded=0;whiteSpace=wrap;html=1;fontSize=16;labelBackgroundColor=none;" vertex="1" parent="1">
          <mxGeometry x="400" y="-420" width="120" height="30" as="geometry" />
        </mxCell>
        <mxCell id="_ozwlIcFfGgeED4cfXQX-24" value="dsalary" style="ellipse;whiteSpace=wrap;html=1;fontSize=16;labelBackgroundColor=none;rounded=0;" vertex="1" parent="1">
          <mxGeometry x="60" y="-240" width="70" height="40" as="geometry" />
        </mxCell>
        <mxCell id="_ozwlIcFfGgeED4cfXQX-26" value="" style="ellipse;whiteSpace=wrap;html=1;fontSize=16;labelBackgroundColor=none;rounded=0;" vertex="1" parent="1">
          <mxGeometry x="30" y="1190" width="120" height="80" as="geometry" />
        </mxCell>
        <mxCell id="_ozwlIcFfGgeED4cfXQX-28" value="h bill" style="ellipse;whiteSpace=wrap;html=1;fontSize=16;labelBackgroundColor=none;rounded=0;" vertex="1" parent="1">
          <mxGeometry x="385" y="-360" width="80" height="30" as="geometry" />
        </mxCell>
        <mxCell id="_ozwlIcFfGgeED4cfXQX-31" value="" style="endArrow=none;html=1;rounded=0;fontSize=12;startSize=8;endSize=8;curved=1;exitX=0.5;exitY=1;exitDx=0;exitDy=0;labelBackgroundColor=none;fontColor=default;" edge="1" parent="1" source="_ozwlIcFfGgeED4cfXQX-3" target="_ozwlIcFfGgeED4cfXQX-8">
          <mxGeometry width="50" height="50" relative="1" as="geometry">
            <mxPoint x="730" y="-270" as="sourcePoint" />
            <mxPoint x="780" y="-320" as="targetPoint" />
          </mxGeometry>
        </mxCell>
        <mxCell id="_ozwlIcFfGgeED4cfXQX-32" value="" style="endArrow=none;html=1;rounded=0;fontSize=12;startSize=8;endSize=8;curved=1;exitX=0.5;exitY=0;exitDx=0;exitDy=0;entryX=0.5;entryY=1;entryDx=0;entryDy=0;labelBackgroundColor=none;fontColor=default;" edge="1" parent="1" source="_ozwlIcFfGgeED4cfXQX-6" target="_ozwlIcFfGgeED4cfXQX-2">
          <mxGeometry width="50" height="50" relative="1" as="geometry">
            <mxPoint x="730" y="-270" as="sourcePoint" />
            <mxPoint x="670" y="-440" as="targetPoint" />
          </mxGeometry>
        </mxCell>
        <mxCell id="_ozwlIcFfGgeED4cfXQX-33" value="" style="endArrow=none;html=1;rounded=0;fontSize=12;startSize=8;endSize=8;curved=1;labelBackgroundColor=none;fontColor=default;" edge="1" parent="1" source="_ozwlIcFfGgeED4cfXQX-7">
          <mxGeometry width="50" height="50" relative="1" as="geometry">
            <mxPoint x="730" y="-270" as="sourcePoint" />
            <mxPoint x="670" y="-445" as="targetPoint" />
          </mxGeometry>
        </mxCell>
        <mxCell id="_ozwlIcFfGgeED4cfXQX-34" value="" style="endArrow=none;html=1;rounded=0;fontSize=12;startSize=8;endSize=8;curved=1;entryX=-0.05;entryY=0.633;entryDx=0;entryDy=0;entryPerimeter=0;exitX=1;exitY=0.5;exitDx=0;exitDy=0;labelBackgroundColor=none;fontColor=default;" edge="1" parent="1" source="_ozwlIcFfGgeED4cfXQX-3" target="_ozwlIcFfGgeED4cfXQX-1">
          <mxGeometry width="50" height="50" relative="1" as="geometry">
            <mxPoint x="730" y="-270" as="sourcePoint" />
            <mxPoint x="780" y="-320" as="targetPoint" />
          </mxGeometry>
        </mxCell>
        <mxCell id="_ozwlIcFfGgeED4cfXQX-35" value="" style="endArrow=none;html=1;rounded=0;fontSize=12;startSize=8;endSize=8;curved=1;exitX=1;exitY=0.5;exitDx=0;exitDy=0;entryX=0;entryY=0.5;entryDx=0;entryDy=0;labelBackgroundColor=none;fontColor=default;" edge="1" parent="1" source="_ozwlIcFfGgeED4cfXQX-1" target="_ozwlIcFfGgeED4cfXQX-2">
          <mxGeometry width="50" height="50" relative="1" as="geometry">
            <mxPoint x="730" y="-270" as="sourcePoint" />
            <mxPoint x="780" y="-320" as="targetPoint" />
          </mxGeometry>
        </mxCell>
        <mxCell id="_ozwlIcFfGgeED4cfXQX-36" value="" style="endArrow=none;html=1;rounded=0;fontSize=12;startSize=8;endSize=8;curved=1;entryX=0.5;entryY=1;entryDx=0;entryDy=0;exitX=0.433;exitY=-0.167;exitDx=0;exitDy=0;exitPerimeter=0;labelBackgroundColor=none;fontColor=default;" edge="1" parent="1" source="_ozwlIcFfGgeED4cfXQX-23" target="_ozwlIcFfGgeED4cfXQX-1">
          <mxGeometry width="50" height="50" relative="1" as="geometry">
            <mxPoint x="730" y="-270" as="sourcePoint" />
            <mxPoint x="450" y="-450" as="targetPoint" />
          </mxGeometry>
        </mxCell>
        <mxCell id="_ozwlIcFfGgeED4cfXQX-42" style="edgeStyle=none;curved=1;rounded=0;orthogonalLoop=1;jettySize=auto;html=1;exitX=1;exitY=0.25;exitDx=0;exitDy=0;entryX=1;entryY=0.5;entryDx=0;entryDy=0;fontSize=12;startSize=8;endSize=8;labelBackgroundColor=none;fontColor=default;" edge="1" parent="1" source="_ozwlIcFfGgeED4cfXQX-1" target="_ozwlIcFfGgeED4cfXQX-1">
          <mxGeometry relative="1" as="geometry" />
        </mxCell>
        <mxCell id="_ozwlIcFfGgeED4cfXQX-44" style="edgeStyle=none;curved=1;rounded=0;orthogonalLoop=1;jettySize=auto;html=1;exitX=0.5;exitY=0;exitDx=0;exitDy=0;entryX=0.5;entryY=0;entryDx=0;entryDy=0;fontSize=12;startSize=8;endSize=8;labelBackgroundColor=none;fontColor=default;" edge="1" parent="1" source="_ozwlIcFfGgeED4cfXQX-7" target="_ozwlIcFfGgeED4cfXQX-7">
          <mxGeometry relative="1" as="geometry" />
        </mxCell>
        <mxCell id="_ozwlIcFfGgeED4cfXQX-45" value="" style="endArrow=none;html=1;rounded=0;fontSize=12;startSize=8;endSize=8;curved=1;exitX=0.445;exitY=1.096;exitDx=0;exitDy=0;exitPerimeter=0;labelBackgroundColor=none;fontColor=default;" edge="1" parent="1" target="_ozwlIcFfGgeED4cfXQX-5">
          <mxGeometry width="50" height="50" relative="1" as="geometry">
            <mxPoint x="153.4000000000001" y="-327.1199999999999" as="sourcePoint" />
            <mxPoint x="780" y="-320" as="targetPoint" />
          </mxGeometry>
        </mxCell>
        <mxCell id="_ozwlIcFfGgeED4cfXQX-46" value="" style="endArrow=none;html=1;rounded=0;fontSize=12;startSize=8;endSize=8;curved=1;exitX=0.5;exitY=0;exitDx=0;exitDy=0;entryX=0.5;entryY=1;entryDx=0;entryDy=0;labelBackgroundColor=none;fontColor=default;" edge="1" parent="1" source="_ozwlIcFfGgeED4cfXQX-24">
          <mxGeometry width="50" height="50" relative="1" as="geometry">
            <mxPoint x="730" y="-270" as="sourcePoint" />
            <mxPoint x="160" y="-330" as="targetPoint" />
          </mxGeometry>
        </mxCell>
        <mxCell id="_ozwlIcFfGgeED4cfXQX-47" value="" style="endArrow=none;html=1;rounded=0;fontSize=12;startSize=8;endSize=8;curved=1;exitX=0.5;exitY=0;exitDx=0;exitDy=0;entryX=0.5;entryY=1;entryDx=0;entryDy=0;labelBackgroundColor=none;fontColor=default;" edge="1" parent="1" source="_ozwlIcFfGgeED4cfXQX-18">
          <mxGeometry width="50" height="50" relative="1" as="geometry">
            <mxPoint x="730" y="-270" as="sourcePoint" />
            <mxPoint x="160" y="-330" as="targetPoint" />
          </mxGeometry>
        </mxCell>
        <mxCell id="_ozwlIcFfGgeED4cfXQX-49" value="" style="endArrow=none;html=1;rounded=0;fontSize=12;startSize=8;endSize=8;curved=1;entryX=0.417;entryY=1.033;entryDx=0;entryDy=0;entryPerimeter=0;exitX=0.5;exitY=0;exitDx=0;exitDy=0;labelBackgroundColor=none;fontColor=default;" edge="1" parent="1" source="_ozwlIcFfGgeED4cfXQX-28" target="_ozwlIcFfGgeED4cfXQX-23">
          <mxGeometry width="50" height="50" relative="1" as="geometry">
            <mxPoint x="730" y="-270" as="sourcePoint" />
            <mxPoint x="320" y="-460" as="targetPoint" />
          </mxGeometry>
        </mxCell>
        <mxCell id="_ozwlIcFfGgeED4cfXQX-50" value="" style="endArrow=none;html=1;rounded=0;fontSize=12;startSize=8;endSize=8;curved=1;exitX=0.5;exitY=1;exitDx=0;exitDy=0;entryX=0.375;entryY=0.05;entryDx=0;entryDy=0;entryPerimeter=0;labelBackgroundColor=none;fontColor=default;" edge="1" parent="1" source="_ozwlIcFfGgeED4cfXQX-3" target="_ozwlIcFfGgeED4cfXQX-9">
          <mxGeometry width="50" height="50" relative="1" as="geometry">
            <mxPoint x="730" y="-270" as="sourcePoint" />
            <mxPoint x="780" y="-320" as="targetPoint" />
          </mxGeometry>
        </mxCell>
        <mxCell id="_ozwlIcFfGgeED4cfXQX-54" value="" style="endArrow=none;html=1;rounded=0;fontSize=12;startSize=8;endSize=8;curved=1;labelBackgroundColor=none;fontColor=default;" edge="1" parent="1">
          <mxGeometry width="50" height="50" relative="1" as="geometry">
            <mxPoint x="370" y="-530" as="sourcePoint" />
            <mxPoint x="160" y="-530" as="targetPoint" />
          </mxGeometry>
        </mxCell>
        <mxCell id="_ozwlIcFfGgeED4cfXQX-55" value="" style="endArrow=none;html=1;rounded=0;fontSize=12;startSize=8;endSize=8;curved=1;exitX=0.5;exitY=0;exitDx=0;exitDy=0;labelBackgroundColor=none;fontColor=default;" edge="1" parent="1">
          <mxGeometry width="50" height="50" relative="1" as="geometry">
            <mxPoint x="160" y="-360" as="sourcePoint" />
            <mxPoint x="160" y="-530" as="targetPoint" />
          </mxGeometry>
        </mxCell>
        <mxCell id="_ozwlIcFfGgeED4cfXQX-56" value="" style="endArrow=none;html=1;rounded=0;fontSize=12;startSize=8;endSize=8;curved=1;exitX=0.5;exitY=0;exitDx=0;exitDy=0;labelBackgroundColor=none;fontColor=default;" edge="1" parent="1" source="_ozwlIcFfGgeED4cfXQX-17" target="_ozwlIcFfGgeED4cfXQX-63">
          <mxGeometry width="50" height="50" relative="1" as="geometry">
            <mxPoint x="730" y="-270" as="sourcePoint" />
            <mxPoint x="660" y="-260" as="targetPoint" />
          </mxGeometry>
        </mxCell>
        <mxCell id="_ozwlIcFfGgeED4cfXQX-57" value="" style="endArrow=none;html=1;rounded=0;fontSize=12;startSize=8;endSize=8;curved=1;exitX=0.67;exitY=0.028;exitDx=0;exitDy=0;exitPerimeter=0;labelBackgroundColor=none;fontColor=default;" edge="1" parent="1" source="_ozwlIcFfGgeED4cfXQX-63" target="_ozwlIcFfGgeED4cfXQX-66">
          <mxGeometry width="50" height="50" relative="1" as="geometry">
            <mxPoint x="780" y="-330" as="sourcePoint" />
            <mxPoint x="790" y="-530" as="targetPoint" />
          </mxGeometry>
        </mxCell>
        <mxCell id="_ozwlIcFfGgeED4cfXQX-58" value="" style="endArrow=none;html=1;rounded=0;fontSize=12;startSize=8;endSize=8;curved=1;labelBackgroundColor=none;fontColor=default;" edge="1" parent="1">
          <mxGeometry width="50" height="50" relative="1" as="geometry">
            <mxPoint x="790" y="-540" as="sourcePoint" />
            <mxPoint x="570" y="-540" as="targetPoint" />
          </mxGeometry>
        </mxCell>
        <mxCell id="_ozwlIcFfGgeED4cfXQX-59" value="" style="endArrow=none;html=1;rounded=0;fontSize=12;startSize=8;endSize=8;curved=1;labelBackgroundColor=none;fontColor=default;" edge="1" parent="1">
          <mxGeometry width="50" height="50" relative="1" as="geometry">
            <mxPoint x="570" y="-500" as="sourcePoint" />
            <mxPoint x="570" y="-540" as="targetPoint" />
          </mxGeometry>
        </mxCell>
        <mxCell id="_ozwlIcFfGgeED4cfXQX-60" value="" style="endArrow=none;html=1;rounded=0;fontSize=12;startSize=8;endSize=8;curved=1;entryX=1;entryY=0.25;entryDx=0;entryDy=0;labelBackgroundColor=none;fontColor=default;" edge="1" parent="1" target="_ozwlIcFfGgeED4cfXQX-1">
          <mxGeometry width="50" height="50" relative="1" as="geometry">
            <mxPoint x="570" y="-500" as="sourcePoint" />
            <mxPoint x="520" y="-500" as="targetPoint" />
          </mxGeometry>
        </mxCell>
        <mxCell id="_ozwlIcFfGgeED4cfXQX-61" value="" style="endArrow=none;html=1;rounded=0;fontSize=12;startSize=8;endSize=8;curved=1;entryX=0;entryY=0.25;entryDx=0;entryDy=0;labelBackgroundColor=none;fontColor=default;" edge="1" parent="1" target="_ozwlIcFfGgeED4cfXQX-1">
          <mxGeometry width="50" height="50" relative="1" as="geometry">
            <mxPoint x="370" y="-500" as="sourcePoint" />
            <mxPoint x="780" y="-320" as="targetPoint" />
          </mxGeometry>
        </mxCell>
        <mxCell id="_ozwlIcFfGgeED4cfXQX-62" value="" style="endArrow=none;html=1;rounded=0;fontSize=12;startSize=8;endSize=8;curved=1;labelBackgroundColor=none;fontColor=default;" edge="1" parent="1">
          <mxGeometry width="50" height="50" relative="1" as="geometry">
            <mxPoint x="370" y="-530" as="sourcePoint" />
            <mxPoint x="370" y="-500" as="targetPoint" />
          </mxGeometry>
        </mxCell>
        <mxCell id="_ozwlIcFfGgeED4cfXQX-63" value="nurse" style="rounded=0;whiteSpace=wrap;html=1;fontSize=16;labelBackgroundColor=none;" vertex="1" parent="1">
          <mxGeometry x="730" y="-320" width="120" height="40" as="geometry" />
        </mxCell>
        <mxCell id="_ozwlIcFfGgeED4cfXQX-65" style="edgeStyle=none;curved=1;rounded=0;orthogonalLoop=1;jettySize=auto;html=1;fontSize=12;startSize=8;endSize=8;labelBackgroundColor=none;fontColor=default;" edge="1" parent="1">
          <mxGeometry relative="1" as="geometry">
            <mxPoint x="849.0870135290843" y="-546.9514133563628" as="sourcePoint" />
            <mxPoint x="849.0870135290843" y="-533.048586643637" as="targetPoint" />
          </mxGeometry>
        </mxCell>
        <mxCell id="_ozwlIcFfGgeED4cfXQX-66" value="nname" style="ellipse;whiteSpace=wrap;html=1;fontSize=16;labelBackgroundColor=none;rounded=0;" vertex="1" parent="1">
          <mxGeometry x="830" y="-190" width="120" height="40" as="geometry" />
        </mxCell>
        <mxCell id="_ozwlIcFfGgeED4cfXQX-67" value="nsalary" style="ellipse;whiteSpace=wrap;html=1;fontSize=16;labelBackgroundColor=none;rounded=0;" vertex="1" parent="1">
          <mxGeometry x="690" y="-200" width="120" height="40" as="geometry" />
        </mxCell>
        <mxCell id="_ozwlIcFfGgeED4cfXQX-68" value="" style="endArrow=none;html=1;rounded=0;fontSize=12;startSize=8;endSize=8;curved=1;exitX=0.5;exitY=0;exitDx=0;exitDy=0;labelBackgroundColor=none;fontColor=default;" edge="1" parent="1" source="_ozwlIcFfGgeED4cfXQX-63">
          <mxGeometry width="50" height="50" relative="1" as="geometry">
            <mxPoint x="730" y="-270" as="sourcePoint" />
            <mxPoint x="790" y="-540" as="targetPoint" />
          </mxGeometry>
        </mxCell>
        <mxCell id="_ozwlIcFfGgeED4cfXQX-69" value="" style="endArrow=none;html=1;rounded=0;fontSize=12;startSize=8;endSize=8;curved=1;entryX=0.5;entryY=1;entryDx=0;entryDy=0;labelBackgroundColor=none;fontColor=default;" edge="1" parent="1" source="_ozwlIcFfGgeED4cfXQX-67" target="_ozwlIcFfGgeED4cfXQX-63">
          <mxGeometry width="50" height="50" relative="1" as="geometry">
            <mxPoint x="730" y="-270" as="sourcePoint" />
            <mxPoint x="780" y="-320" as="targetPoint" />
          </mxGeometry>
        </mxCell>
        <mxCell id="_ozwlIcFfGgeED4cfXQX-71" value="doctor" style="rounded=0;whiteSpace=wrap;html=1;fontSize=16;labelBackgroundColor=none;" vertex="1" parent="1">
          <mxGeometry x="100" y="-360" width="120" height="40" as="geometry" />
        </mxCell>
      </root>
    </mxGraphModel>
  </diagram>
</mxfile>
